<svg xmlns="http://www.w3.org/2000/svg" id="Layer_2" data-name="Layer 2" viewBox="0 0 257.69 42.51"><defs><style>      .cls-1 {        fill: #f5f6f8;        stroke-width: 0px;      }    </style></defs><g id="Layer_1-2" data-name="Layer 1"><g><path class="cls-1" d="M117.22.21h-8.46c-14.24,0-22.24,9.96-22.24,22.24v.07c0,6.5,5.45,19.98,21.11,19.98h12.83c4.16,0,7.82-2.99,8.4-7.11.72-5.13-3.24-9.53-8.23-9.53h-12.74c-2.27,0-4.3-1.61-4.62-3.86-.39-2.78,1.76-5.17,4.47-5.17h6.73l-5.96,5.81h9.69c5.92,0,10.73-4.78,10.76-10.71h0c0-6.48-5.25-11.73-11.73-11.73Z"></path><path class="cls-1" d="M71.68.21h-8.46c-14.24,0-22.24,9.96-22.24,22.24v.07c0,6.5,5.45,19.98,21.11,19.98h12.83c4.16,0,7.82-2.99,8.4-7.11.72-5.13-3.24-9.53-8.23-9.53h-12.74c-2.27,0-4.3-1.61-4.62-3.86-.39-2.78,1.76-5.17,4.47-5.17h6.73l-5.96,5.81h9.69c5.92,0,10.73-4.78,10.76-10.71h0c0-6.48-5.25-11.73-11.73-11.73Z"></path><path class="cls-1" d="M155.5.21h-.63c-2.68,0-5.24.51-7.59,1.43-.01,0-.02,0-.03,0-1.33-.9-2.94-1.43-4.67-1.43h-8.55s-.04.02-.04.04v33.9c0,4.61,3.74,8.35,8.35,8.35.04,0,.08,0,.12,0,.04,0,.08,0,.12,0,4.61,0,8.35-3.74,8.35-8.35v-14.22s0,0,0-.01c.6-1.79,2.29-3.07,4.27-3.07,2.49,0,4.51,2.02,4.51,4.51v12.41c0,4.59,3.54,8.62,8.13,8.74,4.71.12,8.57-3.66,8.57-8.35v-13.02c0-11.55-9.37-20.92-20.92-20.92Z"></path><path class="cls-1" d="M189.48.27c-4.24.51-7.3,4.33-7.3,8.6v24.97c0,4.27,3.07,8.09,7.3,8.6,5.08.62,9.39-3.33,9.39-8.28V8.56c0-4.95-4.32-8.9-9.39-8.28Z"></path><path class="cls-1" d="M238.5,21.3l7.12-7.07c2.41-2.39,3.2-6.11,1.65-9.45-1.39-3-4.58-4.75-7.88-4.69h-.32c-2.1.04-4.1.88-5.61,2.34l-6.5,6.31c-.4.28-.93.28-1.33,0l-6.5-6.31c-1.51-1.46-3.51-2.3-5.61-2.33h-.32c-3.3-.07-6.49,1.69-7.88,4.69-1.55,3.34-.76,7.06,1.65,9.45l7.12,7.07-6.95,6.9c-1.23,1.22-2.15,2.74-2.47,4.44-1,5.34,3.12,9.97,8.27,9.88h.57c2.1-.05,4.1-.88,5.61-2.35l6.5-6.3h.01c.39-.29.91-.29,1.3,0h.01s6.5,6.32,6.5,6.32c1.5,1.46,3.51,2.29,5.6,2.33h.32c3.3.07,6.49-1.69,7.88-4.68,1.55-3.34.76-7.06-1.65-9.45l-7.12-7.07Z"></path><path class="cls-1" d="M6.74,12.98v6.98c-3.79.38-6.74,3.58-6.74,7.47,0,2.07.84,3.95,2.2,5.31,1.2,1.19,2.79,1.99,4.57,2.16.29,4.25,3.83,7.6,8.15,7.6h.84c3.04,0,5.69-1.72,7.01-4.24h-2.12c-.85,0-1.61-.62-1.69-1.47-.09-.97.67-1.78,1.62-1.78l7.39-.08h.36c3.94,0,7.14-3.2,7.14-7.14v-7.87h-11.14c-1.05,0-1.78-.89-1.5-2.02.17-.7.87-1.16,1.6-1.16h8.98c2.39.03,4.72-.98,6.21-2.85,1.11-1.4,1.78-3.17,1.78-5.1V0h-21.66C12.55,0,6.74,5.81,6.74,12.98Z"></path><polygon class="cls-1" points="250.18 .5 251.41 .5 251.41 3.76 251.9 3.76 251.9 .5 253.12 .5 253.12 .09 250.18 .09 250.18 .5"></polygon><polygon class="cls-1" points="257.02 .09 255.86 3.17 254.7 .09 254.03 .09 254.03 3.76 254.49 3.76 254.49 .71 254.5 .71 255.65 3.76 256.07 3.76 257.21 .71 257.22 .71 257.22 3.76 257.69 3.76 257.69 .09 257.02 .09"></polygon></g></g></svg>