<svg width="196" height="18" viewBox="0 0 196 18" fill="none" xmlns="http://www.w3.org/2000/svg">
<path d="M48.0953 0.648141H44.5749C38.6493 0.648141 35.3204 4.67855 35.3204 9.64778V9.6761C35.3204 12.3064 37.5882 17.7612 44.1047 17.7612H49.4435C51.1746 17.7612 52.6976 16.5513 52.9389 14.8841C53.2385 12.8082 51.5907 11.0277 49.5142 11.0277H44.2129C43.2683 11.0277 42.4235 10.3762 42.2904 9.46568C42.1281 8.34073 43.0228 7.37359 44.1504 7.37359H46.9509L44.4709 9.72466H48.5031C50.9665 9.72466 52.968 7.79039 52.9805 5.39076C52.9805 2.76856 50.7959 0.644094 48.0994 0.644094L48.0953 0.648141Z" fill="#F5F6F8"/>
<path d="M29.5294 0.648141H26.0091C20.0835 0.648141 16.7545 4.67855 16.7545 9.64778V9.6761C16.7545 12.3064 19.0224 17.7612 25.5388 17.7612H30.8777C32.6087 17.7612 34.1317 16.5513 34.3731 14.8841C34.6727 12.8082 33.0249 11.0277 30.9484 11.0277H25.647C24.7024 11.0277 23.8577 10.3762 23.7246 9.46568C23.5623 8.34073 24.4569 7.37359 25.5846 7.37359H28.3851L25.905 9.72466H29.9372C32.4007 9.72466 34.4022 7.79039 34.4147 5.39076C34.4147 2.76856 32.2301 0.644094 29.5336 0.644094L29.5294 0.648141Z" fill="#F5F6F8"/>
<path d="M63.7468 0.644094H63.4845C62.3688 0.644094 61.303 0.850457 60.3247 1.22272C60.3205 1.22272 60.3164 1.22272 60.3122 1.22272C59.7585 0.85855 59.0882 0.644094 58.368 0.644094H54.8085C54.8085 0.644094 54.7918 0.652187 54.7918 0.660279V14.3774C54.7918 16.2427 56.3489 17.756 58.2681 17.756C58.2847 17.756 58.3014 17.756 58.318 17.756C58.3347 17.756 58.3513 17.756 58.368 17.756C60.2872 17.756 61.8442 16.2427 61.8442 14.3774V8.62346C61.8442 8.62346 61.8442 8.62346 61.8442 8.61942C62.094 7.89512 62.7976 7.37719 63.6219 7.37719C64.6585 7.37719 65.4995 8.19455 65.4995 9.20209V14.2236C65.4995 16.0809 66.9733 17.7115 68.8842 17.7601C70.845 17.8086 72.452 16.2791 72.452 14.3814V9.11307C72.452 4.43955 68.5511 0.64814 63.7427 0.64814L63.7468 0.644094Z" fill="#F5F6F8"/>
<path d="M77.687 0.666051C75.9615 0.872484 74.7161 2.41871 74.7161 4.14707V14.2542C74.7161 15.9826 75.9655 17.5288 77.687 17.7352C79.7545 17.9862 81.5085 16.3873 81.5085 14.3837V4.0216C81.5085 2.01798 79.7504 0.419142 77.687 0.670099V0.666051Z" fill="#F5F6F8"/>
<path d="M97.9059 9.19852L100.867 6.34724C101.87 5.38337 102.198 3.88313 101.554 2.53614C100.975 1.32626 99.6486 0.620499 98.2761 0.644697H98.143C97.2695 0.660828 96.4377 0.999593 95.8097 1.5884L93.1062 4.13317C92.9398 4.24609 92.7194 4.24609 92.553 4.13317L89.8495 1.5884C89.2214 0.999593 88.3896 0.660828 87.5162 0.648729H87.3831C86.0105 0.620499 84.6837 1.33029 84.1056 2.54017C83.4609 3.88716 83.7895 5.38741 84.7919 6.35127L87.7532 9.20255L84.8626 11.9853C84.351 12.4773 83.9683 13.0903 83.8353 13.7759C83.4193 15.9295 85.1329 17.7967 87.2749 17.7604H87.512C88.3854 17.7402 89.2173 17.4055 89.8453 16.8127L92.5488 14.2719H92.553C92.7152 14.155 92.9315 14.155 93.0937 14.2719H93.0978L95.8013 16.8207C96.4252 17.4095 97.2612 17.7443 98.1305 17.7604H98.2636C99.6362 17.7886 100.963 17.0788 101.541 15.873C102.186 14.526 101.857 13.0258 100.855 12.0619L97.8934 9.21061L97.9059 9.19852Z" fill="#F5F6F8"/>
<path d="M2.80139 5.55898V8.4442C1.22613 8.60127 0 9.92401 0 11.532C0 12.3876 0.349135 13.1647 0.9144 13.7269C1.41316 14.2188 2.07403 14.5494 2.81386 14.6197C2.93439 16.3765 4.40575 17.7612 6.2013 17.7612H6.55043C7.81397 17.7612 8.9154 17.0502 9.46404 16.0086H8.58289C8.2296 16.0086 7.91372 15.7523 7.88047 15.401C7.84306 15 8.15895 14.6652 8.5538 14.6652L11.6254 14.6321H11.775C13.4126 14.6321 14.7426 13.3094 14.7426 11.6808V8.42767H10.1124C9.67602 8.42767 9.3726 8.05978 9.48898 7.59269C9.55964 7.30334 9.85058 7.1132 10.154 7.1132H13.8864C14.8798 7.1256 15.8482 6.70811 16.4675 5.93514C16.9289 5.35644 17.2074 4.6248 17.2074 3.82703V0.193644H8.20466C5.21624 0.193644 2.80139 2.59523 2.80139 5.55898Z" fill="#F5F6F8"/>
<path d="M102.791 0.795062H103.17V1.99545H103.321V0.795062H103.697V0.644094H102.791V0.795062Z" fill="#F5F6F8"/>
<path d="M105.26 0.644094L104.829 1.7782L104.398 0.644094H104.15V1.99545H104.321V0.872388H104.324L104.751 1.99545H104.907L105.33 0.872388H105.334V1.99545H105.508V0.644094H105.26Z" fill="#F5F6F8"/>
<path d="M122.938 17.7568L121.104 13.4027H112.815L110.981 17.7568H108.56L115.798 0.778378H118.121L125.359 17.7568H122.938ZM113.695 11.2622V11.3838H120.224V11.2622L116.996 3.5027H116.947L113.695 11.2622Z" fill="#8A8A94"/>
<path d="M128.422 6.85946C129.612 5.69189 130.998 5.10811 132.579 5.10811C134.16 5.10811 135.53 5.70811 136.687 6.90811H136.76V0H138.986V17.7568H137.029L136.76 16.2H136.687C135.53 17.4 134.16 18 132.579 18C130.998 18 129.612 17.4162 128.422 16.2486C127.248 15.0811 126.662 13.5162 126.662 11.5541C126.662 9.59189 127.248 8.02703 128.422 6.85946ZM132.897 15.9324C134.364 15.9324 135.652 15.3243 136.76 14.1081V9C135.652 7.78378 134.364 7.17567 132.897 7.17567C131.691 7.17567 130.721 7.55676 129.987 8.31892C129.254 9.08108 128.887 10.1595 128.887 11.5541C128.887 12.9486 129.254 14.027 129.987 14.7892C130.721 15.5514 131.691 15.9324 132.897 15.9324Z" fill="#8A8A94"/>
<path d="M155.39 0.778378V2.84595H149.497V17.7568H147.272V2.84595H141.379V0.778378H155.39Z" fill="#8A8A94"/>
<path d="M168.749 11.5541V12.3324H159.31C159.441 13.4676 159.865 14.3514 160.582 14.9838C161.299 15.6162 162.383 15.9324 163.834 15.9324C165.301 15.9324 166.654 15.527 167.893 14.7162H168.015V16.8568C166.646 17.6189 165.032 18 163.174 18C161.332 18 159.848 17.4405 158.723 16.3216C157.615 15.1865 157.061 13.6622 157.061 11.7486C157.061 9.81892 157.558 8.22973 158.552 6.98108C159.547 5.73243 160.997 5.10811 162.905 5.10811C164.812 5.10811 166.263 5.73243 167.257 6.98108C168.252 8.22973 168.749 9.75405 168.749 11.5541ZM159.31 10.5324H166.524C166.459 9.36486 166.059 8.48108 165.326 7.88108C164.608 7.28108 163.801 6.98108 162.905 6.98108C162.008 6.98108 161.201 7.28108 160.484 7.88108C159.767 8.48108 159.375 9.36486 159.31 10.5324Z" fill="#8A8A94"/>
<path d="M181.594 8.39189C180.388 7.58108 179.076 7.17567 177.657 7.17567C176.255 7.17567 175.155 7.58108 174.356 8.39189C173.557 9.18649 173.158 10.2405 173.158 11.5541C173.158 12.8676 173.557 13.9297 174.356 14.7405C175.155 15.5351 176.255 15.9324 177.657 15.9324C179.076 15.9324 180.388 15.527 181.594 14.7162H181.692V16.8081C180.339 17.6027 178.929 18 177.462 18C175.652 18 174.112 17.4162 172.84 16.2486C171.569 15.0811 170.933 13.5162 170.933 11.5541C170.933 9.59189 171.569 8.02703 172.84 6.85946C174.112 5.69189 175.652 5.10811 177.462 5.10811C178.929 5.10811 180.339 5.5054 181.692 6.3V8.39189H181.594Z" fill="#8A8A94"/>
<path d="M191.623 5.10811C192.976 5.10811 194.044 5.56216 194.826 6.47027C195.609 7.37838 196 8.51351 196 9.87568V17.7568H193.775V10.1189C193.775 8.14054 192.878 7.15135 191.085 7.15135C189.667 7.15135 188.33 7.92973 187.075 9.48649V17.7568H184.85V0H187.075V7.27297H187.148C188.469 5.82973 189.96 5.10811 191.623 5.10811Z" fill="#8A8A94"/>
</svg>
