<svg xmlns="http://www.w3.org/2000/svg" id="Layer_2" data-name="Layer 2" viewBox="0 0 114.84 101.74"><defs><style>      .cls-1 {        fill: #f5f6f8;        stroke-width: 0px;      }    </style></defs><g id="Layer_1-2" data-name="Layer 1"><g><path class="cls-1" d="M16.14,31.07v16.71C7.07,48.69,0,56.35,0,65.65c0,4.96,2.01,9.46,5.26,12.71,2.87,2.86,6.67,4.75,10.93,5.18.69,10.16,9.16,18.2,19.5,18.2h2.01c7.29,0,13.62-4.11,16.78-10.16h-5.08c-2.03,0-3.85-1.49-4.04-3.52-.21-2.32,1.61-4.26,3.87-4.26l17.68-.18h.87c9.44,0,17.09-7.65,17.09-17.1v-18.84h-26.67c-2.5,0-4.26-2.13-3.6-4.83.41-1.69,2.08-2.76,3.82-2.76h21.5c5.72.06,11.3-2.35,14.85-6.83,2.66-3.35,4.25-7.6,4.25-12.2V0h-51.84c-17.16,0-31.06,13.91-31.06,31.07Z"></path><polygon class="cls-1" points="103.14 .64 105.05 .64 105.05 5.72 105.81 5.72 105.81 .64 107.72 .64 107.72 0 103.14 0 103.14 .64"></polygon><polygon class="cls-1" points="113.8 0 111.99 4.81 110.18 0 109.14 0 109.14 5.72 109.86 5.72 109.86 .96 109.88 .96 111.67 5.72 112.31 5.72 114.1 .96 114.12 .96 114.12 5.72 114.84 5.72 114.84 0 113.8 0"></polygon></g></g></svg>