<svg width="81" height="81" viewBox="0 0 81 81" fill="none" xmlns="http://www.w3.org/2000/svg">
<path d="M48.0968 32.705H32.0554V48.6734H48.0782V43.3086C48.0875 43.3179 48.0875 43.3272 48.0968 43.3272L48.1062 42.7676V42.7225C48.1062 41.6843 48.0968 33.7711 48.0968 32.7064V32.705ZM25.3125 55.5656H32.0554V48.6747H25.3218C25.3218 50.9686 25.3218 53.3261 25.3125 55.5656ZM13.5938 55.5656H19.3946V48.6747H13.6031L13.5938 55.5656ZM25.3125 67.4062H32.0554V61.4634H25.3125V67.4062ZM25.3205 48.6734C25.3205 50.9672 25.3205 53.3248 25.3112 55.5643H32.054V48.6734H25.3205ZM19.3946 19.5V48.6734H25.3218C25.3218 41.5928 25.3312 35.1793 25.3312 34.8995V34.2577C25.3218 33.4449 25.3218 32.3696 25.3218 30.9787C25.3218 30.2468 25.3218 29.434 25.3125 28.5124V25.3965H55.6552L55.6459 32.7037H55.5821C55.5914 35.4219 55.5634 45.4659 55.5634 46.0626V46.7123C55.5728 47.5158 55.5728 48.5911 55.5728 49.9913V55.5643H32.054V61.4621H61.5V19.5H19.3946ZM48.0782 43.3086C48.0875 43.3179 48.0875 43.3272 48.0968 43.3272L48.1062 42.7676V42.7225C48.1062 41.6843 48.0968 33.7711 48.0968 32.7064H32.0554V48.6747H48.0782V43.3099V43.3086ZM25.3205 48.6734C25.3205 50.9672 25.3205 53.3248 25.3112 55.5643H32.054V48.6734H25.3205ZM19.3946 61.4634H25.3125V55.5656H19.3946V61.4634Z" fill="#66CCFF"/>
</svg>
